<svg width="179" height="41" viewBox="0 0 179 41" fill="none" xmlns="http://www.w3.org/2000/svg">
<g clip-path="url(#clip0_27_2749)">
<path fill-rule="evenodd" clip-rule="evenodd" d="M13.7146 0.516113C11.4582 0.516113 9.2943 1.41245 7.69881 3.00794L0 10.7067V14.2307C0 16.7204 1.06944 18.9603 2.77401 20.5161C1.06944 22.0719 0 24.3118 0 26.8015V30.3255L7.69881 38.0243C9.2943 39.6198 11.4582 40.5161 13.7146 40.5161C16.2043 40.5161 18.4442 39.4467 20 37.7421C21.5558 39.4467 23.7957 40.5161 26.2854 40.5161C28.5418 40.5161 30.7057 39.6198 32.3012 38.0243L40 30.3255V26.8015C40 24.3118 38.9306 22.0719 37.226 20.5161C38.9306 18.9603 40 16.7204 40 14.2307V10.7067L32.3012 3.00794C30.7057 1.41245 28.5418 0.516113 26.2854 0.516113C23.7957 0.516113 21.5558 1.58555 20 3.29012C18.4442 1.58555 16.2043 0.516113 13.7146 0.516113ZM25.7588 20.5161C25.6629 20.4286 25.5688 20.3387 25.4766 20.2465L20 14.7699L14.5234 20.2465C14.4312 20.3387 14.3371 20.4286 14.2412 20.5161C14.3371 20.6036 14.4312 20.6935 14.5234 20.7857L20 26.2623L25.4766 20.7857C25.5688 20.6935 25.6629 20.6036 25.7588 20.5161ZM22.2222 30.3255V32.0085C22.2222 34.2525 24.0414 36.0717 26.2854 36.0717C27.363 36.0717 28.3965 35.6436 29.1585 34.8816L35.5556 28.4845V26.8015C35.5556 24.5575 33.7364 22.7383 31.4924 22.7383C30.4148 22.7383 29.3813 23.1664 28.6193 23.9284L22.2222 30.3255ZM17.7778 30.3255L11.3807 23.9284C10.6187 23.1664 9.58524 22.7383 8.50762 22.7383C6.26359 22.7383 4.44444 24.5575 4.44444 26.8015V28.4845L10.8415 34.8816C11.6035 35.6436 12.637 36.0717 13.7146 36.0717C15.9586 36.0717 17.7778 34.2525 17.7778 32.0085V30.3255ZM17.7778 9.02373V10.7067L11.3807 17.1038C10.6187 17.8658 9.58524 18.2939 8.50762 18.2939C6.26359 18.2939 4.44444 16.4747 4.44444 14.2307V12.5477L10.8415 6.15063C11.6035 5.38864 12.637 4.96056 13.7146 4.96056C15.9586 4.96056 17.7778 6.7797 17.7778 9.02373ZM28.6193 17.1038L22.2222 10.7067V9.02373C22.2222 6.7797 24.0414 4.96056 26.2854 4.96056C27.363 4.96056 28.3965 5.38864 29.1585 6.15063L35.5556 12.5477V14.2307C35.5556 16.4747 33.7364 18.2939 31.4924 18.2939C30.4148 18.2939 29.3813 17.8658 28.6193 17.1038Z" fill="#F25C54"/>
</g>
<path d="M54.052 29V12.2H65.536V15.296H57.604V18.896H64.324V21.764H57.604V25.868H65.632V29H54.052ZM66.8703 29.024L71.2383 22.988L67.0983 16.88H71.5263L73.6743 20.564L75.7623 16.88H80.0823L76.0623 22.916L80.3943 29H75.9063L73.5543 25.304L71.1663 28.964L66.8703 29.024ZM87.1631 29.36C85.8671 29.36 84.8431 28.996 84.0911 28.268C83.3471 27.532 82.9751 26.424 82.9751 24.944V13.388H86.4791V16.88H89.4911V19.688H86.4791V24.308C86.4791 25.02 86.6271 25.52 86.9231 25.808C87.2191 26.096 87.6151 26.24 88.1111 26.24C88.3671 26.24 88.6151 26.212 88.8551 26.156C89.1031 26.092 89.3311 26.004 89.5391 25.892L90.0311 28.652C89.6711 28.852 89.2391 29.02 88.7351 29.156C88.2391 29.292 87.7151 29.36 87.1631 29.36ZM80.5151 19.688V16.88H83.3231V19.688H80.5151ZM97.6414 29.36C96.3214 29.36 95.1614 29.092 94.1614 28.556C93.1614 28.02 92.3814 27.272 91.8214 26.312C91.2614 25.352 90.9814 24.228 90.9814 22.94C90.9814 22.004 91.1414 21.144 91.4614 20.36C91.7894 19.576 92.2454 18.9 92.8294 18.332C93.4214 17.756 94.1134 17.312 94.9054 17C95.7054 16.68 96.5814 16.52 97.5334 16.52C98.5814 16.52 99.5094 16.704 100.317 17.072C101.133 17.44 101.809 17.956 102.345 18.62C102.881 19.276 103.253 20.048 103.461 20.936C103.677 21.824 103.697 22.788 103.521 23.828H94.2334C94.2334 24.388 94.3774 24.876 94.6654 25.292C94.9614 25.708 95.3734 26.036 95.9014 26.276C96.4374 26.508 97.0614 26.624 97.7734 26.624C98.4774 26.624 99.1494 26.528 99.7894 26.336C100.429 26.144 101.033 25.852 101.601 25.46L102.765 27.86C102.381 28.156 101.901 28.42 101.325 28.652C100.749 28.876 100.137 29.048 99.4894 29.168C98.8494 29.296 98.2334 29.36 97.6414 29.36ZM94.4374 21.416H100.161C100.137 20.704 99.8854 20.14 99.4054 19.724C98.9334 19.308 98.2814 19.1 97.4494 19.1C96.6174 19.1 95.9254 19.308 95.3734 19.724C94.8294 20.14 94.5174 20.704 94.4374 21.416ZM105.563 29V16.88H109.067V18.248C109.531 17.64 110.079 17.2 110.711 16.928C111.351 16.656 112.019 16.52 112.715 16.52C113.843 16.52 114.771 16.744 115.499 17.192C116.235 17.632 116.779 18.204 117.131 18.908C117.491 19.612 117.671 20.352 117.671 21.128V29H114.167V22.22C114.167 21.452 113.951 20.84 113.519 20.384C113.095 19.928 112.479 19.7 111.671 19.7C111.159 19.7 110.707 19.816 110.315 20.048C109.923 20.272 109.615 20.588 109.391 20.996C109.175 21.404 109.067 21.876 109.067 22.412V29H105.563ZM124.854 29.348C123.774 29.348 122.778 29.208 121.866 28.928C120.954 28.64 120.174 28.248 119.526 27.752L120.666 25.304C121.298 25.736 121.982 26.076 122.718 26.324C123.454 26.564 124.162 26.684 124.842 26.684C125.514 26.684 126.03 26.584 126.39 26.384C126.758 26.176 126.942 25.88 126.942 25.496C126.942 25.152 126.778 24.9 126.45 24.74C126.13 24.572 125.506 24.392 124.578 24.2C122.978 23.912 121.81 23.46 121.074 22.844C120.338 22.22 119.97 21.364 119.97 20.276C119.97 19.508 120.182 18.832 120.606 18.248C121.038 17.664 121.63 17.212 122.382 16.892C123.134 16.564 123.998 16.4 124.974 16.4C125.934 16.4 126.838 16.532 127.686 16.796C128.542 17.052 129.274 17.412 129.882 17.876L128.778 20.336C128.458 20.08 128.09 19.856 127.674 19.664C127.266 19.472 126.834 19.324 126.378 19.22C125.93 19.108 125.49 19.052 125.058 19.052C124.474 19.052 124.002 19.152 123.642 19.352C123.282 19.544 123.102 19.816 123.102 20.168C123.102 20.52 123.266 20.78 123.594 20.948C123.922 21.116 124.534 21.3 125.43 21.5C127.102 21.852 128.29 22.32 128.994 22.904C129.706 23.48 130.062 24.292 130.062 25.34C130.062 26.148 129.842 26.852 129.402 27.452C128.97 28.052 128.362 28.52 127.578 28.856C126.802 29.184 125.894 29.348 124.854 29.348ZM132.267 29V16.88H135.771V29H132.267ZM134.019 14.96C133.435 14.96 132.931 14.78 132.507 14.42C132.083 14.052 131.871 13.564 131.871 12.956C131.871 12.34 132.083 11.852 132.507 11.492C132.931 11.124 133.435 10.94 134.019 10.94C134.603 10.94 135.107 11.124 135.531 11.492C135.955 11.852 136.167 12.34 136.167 12.956C136.167 13.564 135.955 14.052 135.531 14.42C135.107 14.78 134.603 14.96 134.019 14.96ZM144.381 29.36C143.077 29.36 141.921 29.068 140.913 28.484C139.905 27.9 139.113 27.124 138.537 26.156C137.969 25.18 137.685 24.108 137.685 22.94C137.685 22.084 137.849 21.272 138.177 20.504C138.505 19.728 138.969 19.044 139.569 18.452C140.169 17.852 140.877 17.38 141.693 17.036C142.509 16.692 143.405 16.52 144.381 16.52C145.685 16.52 146.837 16.812 147.837 17.396C148.845 17.98 149.633 18.76 150.201 19.736C150.777 20.704 151.065 21.772 151.065 22.94C151.065 23.788 150.901 24.6 150.573 25.376C150.245 26.152 149.781 26.84 149.181 27.44C148.589 28.032 147.885 28.5 147.069 28.844C146.253 29.188 145.357 29.36 144.381 29.36ZM144.381 26.324C144.997 26.324 145.549 26.188 146.037 25.916C146.525 25.636 146.909 25.244 147.189 24.74C147.469 24.228 147.609 23.628 147.609 22.94C147.609 22.244 147.469 21.644 147.189 21.14C146.917 20.636 146.537 20.248 146.049 19.976C145.561 19.696 145.005 19.556 144.381 19.556C143.757 19.556 143.197 19.696 142.701 19.976C142.213 20.248 141.829 20.636 141.549 21.14C141.277 21.644 141.141 22.244 141.141 22.94C141.141 23.636 141.281 24.236 141.561 24.74C141.841 25.244 142.225 25.636 142.713 25.916C143.201 26.188 143.757 26.324 144.381 26.324ZM152.97 29V16.88H156.474V18.248C156.938 17.64 157.486 17.2 158.118 16.928C158.758 16.656 159.426 16.52 160.122 16.52C161.25 16.52 162.178 16.744 162.906 17.192C163.642 17.632 164.186 18.204 164.538 18.908C164.898 19.612 165.078 20.352 165.078 21.128V29H161.574V22.22C161.574 21.452 161.358 20.84 160.926 20.384C160.502 19.928 159.886 19.7 159.078 19.7C158.566 19.7 158.114 19.816 157.722 20.048C157.33 20.272 157.022 20.588 156.798 20.996C156.582 21.404 156.474 21.876 156.474 22.412V29H152.97ZM172.26 29.348C171.18 29.348 170.184 29.208 169.272 28.928C168.36 28.64 167.58 28.248 166.932 27.752L168.072 25.304C168.704 25.736 169.388 26.076 170.124 26.324C170.86 26.564 171.568 26.684 172.248 26.684C172.92 26.684 173.436 26.584 173.796 26.384C174.164 26.176 174.348 25.88 174.348 25.496C174.348 25.152 174.184 24.9 173.856 24.74C173.536 24.572 172.912 24.392 171.984 24.2C170.384 23.912 169.216 23.46 168.48 22.844C167.744 22.22 167.376 21.364 167.376 20.276C167.376 19.508 167.588 18.832 168.012 18.248C168.444 17.664 169.036 17.212 169.788 16.892C170.54 16.564 171.404 16.4 172.38 16.4C173.34 16.4 174.244 16.532 175.092 16.796C175.948 17.052 176.68 17.412 177.288 17.876L176.184 20.336C175.864 20.08 175.496 19.856 175.08 19.664C174.672 19.472 174.24 19.324 173.784 19.22C173.336 19.108 172.896 19.052 172.464 19.052C171.88 19.052 171.408 19.152 171.048 19.352C170.688 19.544 170.508 19.816 170.508 20.168C170.508 20.52 170.672 20.78 171 20.948C171.328 21.116 171.94 21.3 172.836 21.5C174.508 21.852 175.696 22.32 176.4 22.904C177.112 23.48 177.468 24.292 177.468 25.34C177.468 26.148 177.248 26.852 176.808 27.452C176.376 28.052 175.768 28.52 174.984 28.856C174.208 29.184 173.3 29.348 172.26 29.348Z" fill="white"/>
<defs>
<clipPath id="clip0_27_2749">
<rect width="40" height="41" fill="white"/>
</clipPath>
</defs>
</svg>
